HIERARCHY
ROOT Hips
{
	OFFSET 0.00000 0.00000 0.00000
	CHANNELS 6 Xposition Yposition Zposition Zrotation Yrotation Xrotation 
	JOINT LHipJoint
	{
		OFFSET 0 0 0
		CHANNELS 3 Zrotation Yrotation Xrotation
		JOINT LeftUpLeg
		{
			OFFSET 1.53139 -1.83434 0.76626
			CHANNELS 3 Zrotation Yrotation Xrotation
			JOINT LeftLeg
			{
				OFFSET 2.56112 -7.03663 0.00000
				CHANNELS 3 Zrotation Yrotation Xrotation
				JOINT LeftFoot
				{
					OFFSET 2.59983 -7.14299 0.00000
					CHANNELS 3 Zrotation Yrotation Xrotation
					JOINT LeftToeBase
					{
						OFFSET 0.13742 -0.37757 2.00054
						CHANNELS 3 Zrotation Yrotation Xrotation
						End Site
						{
							OFFSET 0.00000 -0.00000 1.02897
						}
					}
				}
			}
		}
	}
	JOINT RHipJoint
	{
		OFFSET 0 0 0
		CHANNELS 3 Zrotation Yrotation Xrotation
		JOINT RightUpLeg
		{
			OFFSET -1.40122 -1.83435 0.76627
			CHANNELS 3 Zrotation Yrotation Xrotation
			JOINT RightLeg
			{
				OFFSET -2.54052 -6.98003 0.00000
				CHANNELS 3 Zrotation Yrotation Xrotation
				JOINT RightFoot
				{
					OFFSET -2.63179 -7.23079 0.00000
					CHANNELS 3 Zrotation Yrotation Xrotation
					JOINT RightToeBase
					{
						OFFSET -0.24131 -0.66299 2.03908
						CHANNELS 3 Zrotation Yrotation Xrotation
						End Site
						{
							OFFSET -0.00000 -0.00000 1.07391
						}
					}
				}
			}
		}
	}
	JOINT LowerBack
	{
		OFFSET 0 0 0
		CHANNELS 3 Zrotation Yrotation Xrotation
		JOINT Spine
		{
			OFFSET 0.01174 2.10302 -0.29778
			CHANNELS 3 Zrotation Yrotation Xrotation
			JOINT Spine1
			{
				OFFSET 0.00772 2.13227 -0.01247
				CHANNELS 3 Zrotation Yrotation Xrotation
				JOINT Neck
				{
					OFFSET 0 0 0
					CHANNELS 3 Zrotation Yrotation Xrotation
					JOINT Neck1
					{
						OFFSET -0.09219 1.60848 0.31481
						CHANNELS 3 Zrotation Yrotation Xrotation
						JOINT Head
						{
							OFFSET 0.13974 1.65456 -0.31134
							CHANNELS 3 Zrotation Yrotation Xrotation
							End Site
							{
								OFFSET 0.04742 1.69515 -0.14578
							}
						}
					}
				}
				JOINT LeftShoulder
				{
					OFFSET 0 0 0
					CHANNELS 3 Zrotation Yrotation Xrotation
					JOINT LeftArm
					{
						OFFSET 3.24909 1.02882 -0.23993
						CHANNELS 3 Zrotation Yrotation Xrotation
						JOINT LeftForeArm
						{
							OFFSET 5.32955 -0.00000 -0.00000
							CHANNELS 3 Zrotation Yrotation Xrotation
							JOINT LeftHand
							{
								OFFSET 3.69232 -0.00000 -0.00000
								CHANNELS 3 Zrotation Yrotation Xrotation
								JOINT LeftFingerBase
								{
									OFFSET 0 0 0
									CHANNELS 3 Zrotation Yrotation Xrotation
									JOINT LeftHandIndex1
									{
										OFFSET 0.53660 -0.00000 -0.00000
										CHANNELS 3 Zrotation Yrotation Xrotation
										End Site
										{
											OFFSET 0.43262 -0.00000 -0.00000
										}
									}
								}
								JOINT LThumb
								{
									OFFSET 0 0 0
									CHANNELS 3 Zrotation Yrotation Xrotation
									End Site
									{
										OFFSET 0.43922 -0.00000 0.43922
									}
								}
							}
						}
					}
				}
				JOINT RightShoulder
				{
					OFFSET 0 0 0
					CHANNELS 3 Zrotation Yrotation Xrotation
					JOINT RightArm
					{
						OFFSET -3.21387 0.93002 -0.34594
						CHANNELS 3 Zrotation Yrotation Xrotation
						JOINT RightForeArm
						{
							OFFSET -5.23431 -0.00000 0.00000
							CHANNELS 3 Zrotation Yrotation Xrotation
							JOINT RightHand
							{
								OFFSET -3.55301 -0.00000 -0.00000
								CHANNELS 3 Zrotation Yrotation Xrotation
								JOINT RightFingerBase
								{
									OFFSET 0 0 0
									CHANNELS 3 Zrotation Yrotation Xrotation
									JOINT RightHandIndex1
									{
										OFFSET -0.77252 -0.00000 -0.00000
										CHANNELS 3 Zrotation Yrotation Xrotation
										End Site
										{
											OFFSET -0.62283 -0.00000 -0.00000
										}
									}
								}
								JOINT RThumb
								{
									OFFSET 0 0 0
									CHANNELS 3 Zrotation Yrotation Xrotation
									End Site
									{
										OFFSET -0.63234 -0.00000 0.63234
									}
								}
							}
						}
					}
				}
			}
		}
	}
}
MOTION
Frames: 10
Frame Time: .0083333
5.4835 17.8689 6.7077 358.9010 40.0300 355.2310 0.0000 0.0000 0.0000 -18.5000 -8.1337 -7.1558 3.5139 11.4838 33.9293 -0.8088 -23.0792 -9.7038 0.4068 -4.0945 -11.3426 0.0000 0.0000 0.0000 17.9069 4.8079 -9.7080 -2.8291 -10.4132 30.3254 -0.4036 7.6965 -11.7524 -0.0100 -0.6448 1.7720 -0.6632 1.2671 12.1708 0.1915 1.6247 1.1570 0.3010 0.8248 -5.6345 -14.1328 -10.2301 -9.3901 12.6881 -15.7264 32.8205 5.1106 -6.9271 15.3239 -0.0000 0.0000 0.0000 -87.3584 2.4445 17.5959 17.8467 -27.9604 -4.4771 -0.0000 -0.0000 7.5560 20.4917 20.7314 7.5360 -7.1250 0.0000 -0.0000 -8.2363 51.7977 -1.3865 -0.0000 0.0000 0.0000 85.5241 -2.3026 14.0742 -21.2168 32.0805 -6.1647 0.0000 -0.0000 -0.1808 -22.9785 6.8009 -2.8746 7.1250 -0.0000 -0.0000 2.7786 -22.6017 1.4991
5.4685 17.8489 6.7463 359.0720 39.5145 355.2690 0.0000 0.0000 0.0000 -19.3459 -8.3963 -6.8671 3.3799 11.2860 33.2507 -0.8201 -23.2648 -9.8041 0.3595 -3.8519 -10.6603 0.0000 0.0000 0.0000 17.8744 4.8899 -9.8910 -2.9296 -10.5803 30.8770 -0.4031 8.2191 -11.8764 -0.0092 -0.6210 1.7064 -0.9131 1.2504 12.0372 0.3408 1.5798 1.2659 0.6102 0.8098 -5.4560 -14.2393 -10.1869 -9.4604 12.5719 -15.5992 32.8649 5.1016 -6.8977 15.3343 -0.0000 0.0000 0.0000 -87.7129 2.3759 18.2104 17.9573 -28.1025 -4.5291 -0.0000 -0.0000 6.9254 20.9212 21.0957 7.8344 -7.1250 0.0000 -0.0000 -7.9306 52.2496 -1.4226 -0.0000 0.0000 0.0000 85.1136 -2.1319 14.0080 -21.2684 32.1403 -6.1921 0.0000 -0.0000 -0.4498 -22.3770 6.4304 -2.6400 7.1250 -0.0000 -0.0000 3.2167 -23.0334 1.7043
5.4534 17.8333 6.7861 359.0850 38.9428 355.2080 0.0000 0.0000 0.0000 -20.0169 -8.5340 -6.7263 3.2631 11.1093 32.6494 -0.7586 -23.2294 -10.3312 0.3627 -3.8690 -10.7084 0.0000 0.0000 0.0000 18.0005 4.7961 -10.0630 -3.0129 -10.7160 31.3278 -0.4053 8.7092 -12.0376 -0.0009 -0.1904 0.5231 -1.0562 1.2394 11.8799 0.4939 1.5573 1.3702 0.8593 0.8027 -5.2665 -14.2486 -10.1433 -9.4795 12.4506 -15.4932 32.8705 5.0701 -6.8688 15.3064 -0.0000 0.0000 0.0000 -87.9973 2.1859 18.3263 17.8766 -27.9989 -4.4912 -0.0000 -0.0000 7.2333 20.5432 21.3575 7.7715 -7.1250 0.0000 -0.0000 -8.3992 52.4524 -1.5495 -0.0000 0.0000 0.0000 84.7511 -1.9384 13.9554 -21.2439 32.1119 -6.1791 0.0000 -0.0000 -0.6381 -21.3943 5.9876 -2.3403 7.1250 -0.0000 -0.0000 3.9410 -23.5556 2.0423
5.4366 17.8158 6.8245 358.9130 38.3548 355.0650 0.0000 0.0000 0.0000 -20.4534 -8.6627 -6.6646 3.1653 10.9579 32.1380 -0.7397 -23.2364 -10.5102 0.2889 -3.4564 -9.5521 0.0000 0.0000 0.0000 18.2812 4.4604 -10.3007 -3.0809 -10.8248 31.6914 -0.4090 9.3615 -12.2764 -0.0078 0.5699 -1.5659 -0.9560 1.2187 11.8504 0.5932 1.5481 1.3386 0.9085 0.7970 -5.2833 -14.1221 -10.1003 -9.3777 12.2494 -15.4122 32.9446 4.9844 -6.8469 15.2639 0.0000 0.0000 0.0000 -88.1872 2.0575 18.1537 17.6348 -27.6870 -4.3782 -0.0000 -0.0000 7.8213 20.7704 22.3483 8.2063 -7.1250 0.0000 -0.0000 -8.5278 53.5139 -1.7957 0.0000 0.0000 0.0000 84.5590 -1.9517 13.8875 -21.1980 32.0587 -6.1547 0.0000 -0.0000 -0.6108 -21.0900 5.9529 -2.2905 7.1250 -0.0000 -0.0000 4.1664 -23.6061 2.1549
5.4186 17.8065 6.8603 358.7920 37.8526 354.9520 0.0000 0.0000 0.0000 -20.8974 -8.8059 -6.6115 3.0866 10.8340 31.7221 -0.6566 -23.0340 -11.0435 0.3073 -3.5638 -9.8526 0.0000 0.0000 0.0000 18.4713 4.2837 -10.5017 -3.1390 -10.9168 31.9998 -0.3827 10.1045 -12.2253 -0.0052 0.4673 -1.2840 -0.9379 1.1905 11.8570 0.7101 1.5192 1.2999 1.0249 0.7837 -5.3297 -14.1532 -10.1020 -9.2477 12.1558 -15.4083 33.0527 4.9597 -6.8655 15.2777 -0.0000 0.0000 0.0000 -88.2114 2.3369 19.5197 17.9143 -28.0473 -4.5089 -0.0000 -0.0000 6.5052 22.1748 23.9611 9.3987 -7.1250 0.0000 -0.0000 -7.7012 55.4513 -1.9842 -0.0000 0.0000 0.0000 84.3122 -1.8964 13.6814 -21.1264 31.9756 -6.1168 0.0000 -0.0000 -0.3067 -21.4080 6.1076 -2.3886 7.1250 -0.0000 -0.0000 3.9307 -23.4266 2.0486
5.3998 17.8005 6.8939 358.7900 37.4357 354.8920 0.0000 0.0000 0.0000 -21.4106 -8.9393 -6.5310 3.0191 10.7260 31.3611 -0.5970 -22.7430 -11.2800 0.3027 -3.5373 -9.7785 0.0000 0.0000 0.0000 18.5097 4.2207 -10.6823 -3.1973 -11.0078 32.3063 -0.3291 10.9521 -11.9475 -0.0036 -0.3850 1.0579 -1.0848 1.1852 11.8343 0.8321 1.5000 1.3035 1.2391 0.7786 -5.3201 -14.3175 -10.1743 -9.0634 12.2420 -15.5475 33.1183 5.0078 -6.9436 15.3231 0.0000 -0.0000 0.0000 -88.3596 2.4620 20.6166 18.0945 -28.2780 -4.5939 -0.0000 -0.0000 5.4814 22.9259 23.6745 9.6387 -7.1250 0.0000 -0.0000 -6.8009 55.3074 -1.7268 0.0000 -0.0000 0.0000 84.0136 -1.7074 13.3694 -20.9855 31.8114 -6.0423 0.0000 -0.0000 -0.1030 -21.6547 6.1277 -2.4268 7.1250 -0.0000 -0.0000 3.7484 -23.3938 1.9560
5.3789 17.7874 6.9265 358.6200 37.0067 354.7870 0.0000 0.0000 0.0000 -21.6974 -9.0586 -6.4983 2.9603 10.6305 31.0436 -0.6102 -22.4713 -10.8938 0.2202 -3.0206 -8.3361 0.0000 0.0000 0.0000 18.7179 3.9935 -10.9361 -3.2547 -11.0964 32.6055 -0.2934 11.7449 -11.8962 -0.0003 -0.1069 0.2938 -1.1807 1.1459 11.7305 1.0058 1.4462 1.3343 1.4860 0.7554 -5.2352 -14.4251 -10.2365 -8.9932 12.3205 -15.6721 33.1918 5.0413 -7.0049 15.3894 -0.0000 -0.0000 0.0000 -88.5704 2.4309 20.7169 18.1184 -28.3085 -4.6052 -0.0000 -0.0000 6.0582 21.8795 22.6224 8.7812 -7.1250 0.0000 -0.0000 -7.4957 54.0077 -1.6669 -0.0000 -0.0000 0.0000 83.7480 -1.5301 13.2365 -20.8453 31.6473 -5.9686 0.0000 -0.0000 -0.1534 -21.8026 6.2757 -2.5038 7.1250 -0.0000 -0.0000 3.6395 -23.2281 1.9128
5.3608 17.7739 6.9619 358.4990 36.5480 354.7000 0.0000 0.0000 0.0000 -21.9860 -9.1182 -6.4553 2.9162 10.5581 30.8038 -0.6767 -22.2686 -10.0724 0.0920 -1.9566 -5.3857 0.0000 0.0000 0.0000 18.8928 3.6463 -11.1426 -3.3032 -11.1704 32.8568 -0.2627 12.4850 -11.9138 -0.0053 0.4719 -1.2966 -1.3532 1.1285 11.5442 1.1886 1.4132 1.4008 1.7837 0.7431 -5.0695 -14.4946 -10.2864 -8.9814 12.3765 -15.7690 33.2373 5.0602 -7.0501 15.4433 0.0000 -0.0000 0.0000 -88.7308 2.4556 21.0459 18.2207 -28.4388 -4.6539 -0.0000 -0.0000 6.4143 21.1893 22.6395 8.4872 -7.1250 0.0000 -0.0000 -8.2096 53.8929 -1.8042 0.0000 -0.0000 0.0000 83.5529 -1.5337 12.9840 -20.9320 31.7489 -6.0141 0.0000 -0.0000 -0.0219 -21.8305 6.3082 -2.5203 7.1250 -0.0000 -0.0000 3.6189 -23.1919 1.9050
5.3403 17.7669 6.9976 358.3420 36.1227 354.4980 0.0000 0.0000 0.0000 -22.1877 -9.1107 -6.3537 2.8956 10.5241 30.6913 -0.7614 -21.9862 -8.9385 0.0006 -0.1538 -0.4226 0.0000 0.0000 0.0000 19.0827 3.4422 -11.2066 -3.3359 -11.2200 33.0253 -0.1977 13.2613 -11.6141 -0.0006 -0.1519 0.4173 -1.5440 1.0852 11.5240 1.3851 1.3430 1.4484 2.1092 0.7136 -5.0146 -14.4644 -10.3152 -9.0282 12.2994 -15.8085 33.3298 5.0148 -7.0705 15.4944 0.0000 0.0000 0.0000 -88.8886 2.5753 21.6331 18.3837 -28.6456 -4.7317 -0.0000 -0.0000 6.0181 21.5049 23.1646 8.8103 -7.1250 0.0000 -0.0000 -8.0853 54.4953 -1.8956 0.0000 0.0000 0.0000 83.4027 -1.6137 12.7238 -21.0559 31.8935 -6.0794 0.0000 0.0000 0.3037 -21.8761 6.1750 -2.4730 7.1250 -0.0000 -0.0000 3.5849 -23.3327 1.8754
5.3161 17.7667 7.0317 357.9920 35.7647 354.2010 0.0000 0.0000 0.0000 -22.1336 -9.2441 -6.2297 2.8988 10.5294 30.7088 -0.7532 -20.8474 -7.6945 0.1033 2.0725 5.7060 0.0000 0.0000 0.0000 19.4635 3.1897 -11.2592 -3.3504 -11.2418 33.0998 -0.1339 13.9861 -11.3402 -0.0167 -0.8351 2.2953 -1.4885 0.9917 11.6079 1.5232 1.2328 1.4264 2.2391 0.6603 -5.0808 -14.4772 -10.3512 -9.0492 12.3907 -15.9210 33.4690 5.0400 -7.1091 15.6038 0.0000 -0.0000 0.0000 -88.8917 2.6561 22.0923 18.3999 -28.6663 -4.7395 -0.0000 -0.0000 5.7106 21.7337 23.2432 8.9402 -7.1250 0.0000 -0.0000 -7.8790 54.6215 -1.8711 0.0000 -0.0000 0.0000 83.4165 -1.7365 12.4911 -21.0776 31.9188 -6.0909 0.0000 0.0000 0.5563 -21.7759 6.2376 -2.4854 7.1250 -0.0000 -0.0000 3.6590 -23.2702 1.9196
